# xmcd
#
# Track frame offsets: 
#        150
#        39498
#        74165
#        100105
#        142231
#        176992
#        218146
#        279537
#
# Disc length: 4509 seconds
#
# Revision: 1
# Processed by: cddbd v1.5.2PL0 Copyright (c) Steve Scherf et al.
# Submitted via: ExactAudioCopyFreeDBPlugin 1.0
#
DISCID=84119b08
DTITLE=Andreas Fröhlich - Eragon [CD02)
DYEAR=2005
DGENRE=Hörbuch
TTITLE0=Drachengeschichten (Teil 5)
TTITLE1=Drachengeschichten (Teil 6)
TTITLE2=Ein Geschenk des Schicksals
TTITLE3=Erwachen (Teil 1)
TTITLE4=Erwachen (Teil 2)
TTITLE5=Erwachen (Teil 3)
TTITLE6=Teestunde (Teil 1)
TTITLE7=Teestunde (Teil 2)
EXTD=
EXTT0=
EXTT1=
EXTT2=
EXTT3=
EXTT4=
EXTT5=
EXTT6=
EXTT7=
PLAYORDER=
